# xmcd
#
# Track frame offsets: 
#        150
#        11232
#        23158
#        34126
#        44379
#        58119
#        71667
#        82367
#        92314
#        102214
#        112924
#        123873
#        136128
#        148395
#        157645
#        168306
#        180614
#        190969
#        201316
#        213109
#        225196
#        235186
#        244324
#        255566
#        263076
#        275000
#        288206
#        301169
#
# Disc length: 4150 seconds
#
# Revision: 0
# Processed by: cddbd v1.5.1PL0 Copyright (c) Steve Scherf et al.
# Submitted via: ExactAudioCopy v0.95a5
#
DISCID=8310341c
DTITLE=Various Artist - The 'D' Singles Volume 4 - Disc 4
DYEAR=2002
DGENRE=Country
TTITLE0=Jack Newman - One Little Room
TTITLE1=Jack Newman - Blue Me
TTITLE2=Marty Martel - Someday You´ll Be True
TTITLE3=Marty Martel - Between The Devil And The Deep Blue Sea
TTITLE4=Booth Kinner - This Lonely Pillow
TTITLE5=Booth Kinner - So Lonesome
TTITLE6=Mac McGee - Move Over Conscience
TTITLE7=Mac McGee - I´d Better Run
TTITLE8=Cecil Bowmann - Lay Your Hoe Down
TTITLE9=Cecil Bowmann - This World Will Be So Lonely
TTITLE10=Danny Reeves - I´m A Hobo
TTITLE11=Danny Reeves - Bell Hop Blues
TTITLE12=Jim Busby - The Lights Are On (At Our House)
TTITLE13=Jim Busby - Live With The Heartaches
TTITLE14=Lou Smith - My Name Is Lou
TTITLE15=Lou Smith - I´ll Be The One
TTITLE16=Lou Smith - Ease My Lonely Mind
TTITLE17=Lou Smith - Will There Be Sweethearts
TTITLE18=Bill Wilbourne - Dear World
TTITLE19=Bill Wilbourne - Cold Cold Ashes
TTITLE20=Fitz Morris - One Of Many
TTITLE21=Fitz Morris - Poor Little Heart
TTITLE22=Tony Douglas - Woman Behind This Man
TTITLE23=Tony Douglas - Shrimpin´
TTITLE24=Red Hayes - Living Too Fast
TTITLE25=Red Hayes - House Upon A Hill
TTITLE26=Neal Jones - Dead Lost
TTITLE27=Neal Jones - Looking Up
EXTD=
EXTT0=
EXTT1=
EXTT2=
EXTT3=
EXTT4=
EXTT5=
EXTT6=
EXTT7=
EXTT8=
EXTT9=
EXTT10=
EXTT11=
EXTT12=
EXTT13=
EXTT14=
EXTT15=
EXTT16=
EXTT17=
EXTT18=
EXTT19=
EXTT20=
EXTT21=
EXTT22=
EXTT23=
EXTT24=
EXTT25=
EXTT26=
EXTT27=
PLAYORDER=
